<svg width="381.000000" height="198.000000" viewBox="0 0 381 198" fill="none" xmlns="http://www.w3.org/2000/svg" xmlns:xlink="http://www.w3.org/1999/xlink">
	<desc>
			Created with Pixso.
	</desc>
	<defs>
		<filter id="filter_46_806_dd" x="0.000000" y="0.000000" width="381.000000" height="198.000000" filterUnits="userSpaceOnUse" color-interpolation-filters="sRGB">
			<feFlood flood-opacity="0" result="BackgroundImageFix"/>
			<feColorMatrix in="SourceAlpha" type="matrix" values="0 0 0 0 0 0 0 0 0 0 0 0 0 0 0 0 0 0 127 0" result="hardAlpha"/>
			<feOffset dx="0" dy="40"/>
			<feGaussianBlur stdDeviation="23.3333"/>
			<feComposite in2="hardAlpha" operator="out" k2="-1" k3="1"/>
			<feColorMatrix type="matrix" values="0 0 0 0 0.2549 0 0 0 0 0.094118 0 0 0 0 0.63529 0 0 0 0.25 0"/>
			<feBlend mode="normal" in2="BackgroundImageFix" result="effect_dropShadow_1"/>
			<feBlend mode="normal" in="SourceGraphic" in2="effect_dropShadow_1" result="shape"/>
		</filter>
	</defs>
	<g filter="url(#filter_46_806_dd)">
		<rect id="Fill" x="70.000000" y="30.000000" rx="9.000000" width="241.000000" height="58.000000" fill="#341AC6" fill-opacity="0.57"/>
	</g>
	<path id="Let’s Talk" d="M121.693 50.1543L121.693 53.4414L114.826 53.4414L114.826 56.9922L119.965 56.9922L119.965 60.1855L114.826 60.1855L114.826 67L110.724 67L110.724 50.1543L121.693 50.1543ZM128.254 50.1543L128.254 67L124.152 67L124.152 50.1543L128.254 50.1543ZM139.694 53.4648Q142.044 53.4648 143.444 54.9883Q144.851 56.5117 144.851 59.1777L144.851 67L140.772 67L140.772 59.7285Q140.772 58.3867 140.075 57.6426Q139.378 56.8984 138.206 56.8984Q137.028 56.8984 136.331 57.6426Q135.634 58.3867 135.634 59.7285L135.634 67L131.532 67L131.532 53.6055L135.634 53.6055L135.634 55.3867Q136.261 54.4961 137.315 53.9805Q138.37 53.4648 139.694 53.4648ZM147.194 60.2793Q147.194 58.2168 147.973 56.6582Q148.752 55.0938 150.094 54.2559Q151.442 53.418 153.094 53.418Q154.418 53.418 155.508 53.9688Q156.598 54.5195 157.225 55.457L157.225 49.2402L161.327 49.2402L161.327 67L157.225 67L157.225 65.0781Q156.651 66.0391 155.579 66.6191Q154.512 67.1934 153.094 67.1934Q151.442 67.1934 150.094 66.3438Q148.752 65.4883 147.973 63.918Q147.194 62.3418 147.194 60.2793ZM157.225 60.3027Q157.225 58.7676 156.37 57.8828Q155.52 56.9922 154.295 56.9922Q153.071 56.9922 152.215 57.8711Q151.366 58.7441 151.366 60.2793Q151.366 61.8145 152.215 62.7168Q153.071 63.6133 154.295 63.6133Q155.52 63.6133 156.37 62.7285Q157.225 61.8379 157.225 60.3027ZM182.109 50.1543L182.109 53.4414L177.65 53.4414L177.65 67L173.543 67L173.543 53.4414L169.078 53.4414L169.078 50.1543L182.109 50.1543ZM188.578 55.8379Q189.299 54.7363 190.377 54.1035Q191.461 53.4648 192.779 53.4648L192.779 57.8066L191.654 57.8066Q190.119 57.8066 189.345 58.4688Q188.578 59.1309 188.578 60.7832L188.578 67L184.476 67L184.476 53.6055L188.578 53.6055L188.578 55.8379ZM207.669 60.0859Q207.669 60.666 207.599 61.2871L198.312 61.2871Q198.406 62.5352 199.115 63.1973Q199.824 63.8535 200.855 63.8535Q202.39 63.8535 202.994 62.5586L207.359 62.5586Q207.025 63.8828 206.146 64.9375Q205.273 65.9922 203.949 66.5957Q202.63 67.1934 201.001 67.1934Q199.033 67.1934 197.497 66.3555Q195.962 65.5117 195.095 63.9531Q194.234 62.3945 194.234 60.3027Q194.234 58.2168 195.083 56.6582Q195.939 55.0938 197.474 54.2559Q199.009 53.418 201.001 53.418Q202.947 53.418 204.458 54.2324Q205.97 55.0469 206.82 56.5586Q207.669 58.0703 207.669 60.0859ZM203.474 59.0078Q203.474 57.9531 202.753 57.332Q202.033 56.7051 200.955 56.7051Q199.917 56.7051 199.208 57.3086Q198.505 57.9062 198.335 59.0078L203.474 59.0078ZM209.318 60.2793Q209.318 58.2168 210.097 56.6582Q210.876 55.0938 212.218 54.2559Q213.566 53.418 215.218 53.418Q216.636 53.418 217.703 53.9922Q218.775 54.5664 219.349 55.5039L219.349 53.6055L223.451 53.6055L223.451 67L219.349 67L219.349 65.1016Q218.746 66.0391 217.679 66.6191Q216.613 67.1934 215.195 67.1934Q213.566 67.1934 212.218 66.3438Q210.876 65.4883 210.097 63.918Q209.318 62.3418 209.318 60.2793ZM219.349 60.3027Q219.349 58.7676 218.494 57.8828Q217.644 56.9922 216.419 56.9922Q215.195 56.9922 214.339 57.8711Q213.49 58.7441 213.49 60.2793Q213.49 61.8145 214.339 62.7168Q215.195 63.6133 216.419 63.6133Q217.644 63.6133 218.494 62.7285Q219.349 61.8379 219.349 60.3027ZM232.178 67.1934Q230.426 67.1934 229.054 66.5957Q227.689 65.9922 226.892 64.9492Q226.101 63.9062 226.008 62.6055L230.062 62.6055Q230.138 63.3027 230.713 63.7363Q231.287 64.1699 232.131 64.1699Q232.898 64.1699 233.314 63.8711Q233.736 63.5664 233.736 63.0859Q233.736 62.5117 233.133 62.2363Q232.535 61.9609 231.193 61.6211Q229.752 61.2871 228.791 60.918Q227.83 60.543 227.133 59.7402Q226.441 58.9375 226.441 57.5664Q226.441 56.418 227.074 55.4688Q227.713 54.5195 228.949 53.9688Q230.185 53.418 231.89 53.418Q234.41 53.418 235.857 54.666Q237.31 55.9141 237.527 57.9766L233.736 57.9766Q233.642 57.2793 233.121 56.875Q232.605 56.4648 231.767 56.4648Q231.047 56.4648 230.66 56.7402Q230.279 57.0156 230.279 57.4961Q230.279 58.0703 230.888 58.3633Q231.504 58.6504 232.799 58.9375Q234.287 59.3184 235.224 59.6934Q236.162 60.0625 236.865 60.8945Q237.574 61.7207 237.597 63.1094Q237.597 64.2871 236.935 65.2129Q236.279 66.1387 235.043 66.666Q233.806 67.1934 232.178 67.1934ZM253.645 53.6055L253.645 67L249.537 67L249.537 65.1777Q248.916 66.0625 247.844 66.6074Q246.778 67.1465 245.483 67.1465Q243.948 67.1465 242.77 66.4609Q241.598 65.7754 240.948 64.4805Q240.297 63.1855 240.297 61.4336L240.297 53.6055L244.381 53.6055L244.381 60.8828Q244.381 62.2246 245.073 62.9688Q245.77 63.7129 246.948 63.7129Q248.149 63.7129 248.84 62.9688Q249.537 62.2246 249.537 60.8828L249.537 53.6055L253.645 53.6055ZM260.998 55.8379Q261.719 54.7363 262.797 54.1035Q263.881 53.4648 265.199 53.4648L265.199 57.8066L264.074 57.8066Q262.539 57.8066 261.765 58.4688Q260.998 59.1309 260.998 60.7832L260.998 67L256.896 67L256.896 53.6055L260.998 53.6055L260.998 55.8379ZM280.089 60.0859Q280.089 60.666 280.019 61.2871L270.732 61.2871Q270.826 62.5352 271.535 63.1973Q272.244 63.8535 273.275 63.8535Q274.81 63.8535 275.414 62.5586L279.779 62.5586Q279.445 63.8828 278.566 64.9375Q277.693 65.9922 276.369 66.5957Q275.05 67.1934 273.421 67.1934Q271.453 67.1934 269.918 66.3555Q268.382 65.5117 267.515 63.9531Q266.654 62.3945 266.654 60.3027Q266.654 58.2168 267.503 56.6582Q268.359 55.0938 269.894 54.2559Q271.429 53.418 273.421 53.418Q275.367 53.418 276.878 54.2324Q278.39 55.0469 279.24 56.5586Q280.089 58.0703 280.089 60.0859ZM275.894 59.0078Q275.894 57.9531 275.173 57.332Q274.453 56.7051 273.375 56.7051Q272.337 56.7051 271.628 57.3086Q270.925 57.9062 270.755 59.0078L275.894 59.0078Z" fill-rule="evenodd" fill="#FFFFFF"/>
</svg>
