<svg width="333.000000" height="198.000000" viewBox="0 0 333 198" fill="none" xmlns="http://www.w3.org/2000/svg" xmlns:xlink="http://www.w3.org/1999/xlink">
	<desc>
			Created with Pixso.
	</desc>
	<defs>
		<filter id="filter_54_11_dd" x="0.000000" y="0.000000" width="333.000000" height="198.000000" filterUnits="userSpaceOnUse" color-interpolation-filters="sRGB">
			<feFlood flood-opacity="0" result="BackgroundImageFix"/>
			<feColorMatrix in="SourceAlpha" type="matrix" values="0 0 0 0 0 0 0 0 0 0 0 0 0 0 0 0 0 0 127 0" result="hardAlpha"/>
			<feOffset dx="0" dy="40"/>
			<feGaussianBlur stdDeviation="23.3333"/>
			<feComposite in2="hardAlpha" operator="out" k2="-1" k3="1"/>
			<feColorMatrix type="matrix" values="0 0 0 0 0.2549 0 0 0 0 0.094118 0 0 0 0 0.63529 0 0 0 0.25 0"/>
			<feBlend mode="normal" in2="BackgroundImageFix" result="effect_dropShadow_1"/>
			<feBlend mode="normal" in="SourceGraphic" in2="effect_dropShadow_1" result="shape"/>
		</filter>
	</defs>
	<g filter="url(#filter_54_11_dd)">
		<rect id="Fill" x="70.000000" y="30.000000" rx="9.000000" width="193.000000" height="58.000000" fill="#341AC6" fill-opacity="0.57"/>
	</g>
	<path id="Let’s Talk" d="M115.903 58.5508Q115.903 56.0547 116.981 54.1035Q118.065 52.1465 119.993 51.0566Q121.926 49.9609 124.376 49.9609Q127.376 49.9609 129.508 51.5488Q131.647 53.1309 132.368 55.8613L127.856 55.8613Q127.352 54.8066 126.426 54.2559Q125.507 53.7051 124.329 53.7051Q122.43 53.7051 121.253 55.0234Q120.081 56.3418 120.081 58.5508Q120.081 60.7598 121.253 62.084Q122.43 63.4023 124.329 63.4023Q125.507 63.4023 126.426 62.8516Q127.352 62.2949 127.856 61.2402L132.368 61.2402Q131.647 63.9766 129.508 65.5469Q127.376 67.1172 124.376 67.1172Q121.926 67.1172 119.993 66.0273Q118.065 64.9375 116.981 62.9922Q115.903 61.0469 115.903 58.5508ZM141.282 67.1934Q139.313 67.1934 137.743 66.3555Q136.173 65.5117 135.27 63.9531Q134.374 62.3945 134.374 60.3027Q134.374 58.2402 135.282 56.6699Q136.196 55.0938 137.778 54.2559Q139.366 53.418 141.335 53.418Q143.298 53.418 144.88 54.2559Q146.468 55.0938 147.376 56.6699Q148.29 58.2402 148.29 60.3027Q148.29 62.3652 147.364 63.9414Q146.444 65.5117 144.845 66.3555Q143.251 67.1934 141.282 67.1934ZM141.282 63.6426Q142.46 63.6426 143.286 62.7812Q144.118 61.9141 144.118 60.3027Q144.118 58.6973 143.309 57.8359Q142.507 56.9688 141.335 56.9688Q140.134 56.9688 139.337 57.8242Q138.546 58.6738 138.546 60.3027Q138.546 61.9141 139.325 62.7812Q140.11 63.6426 141.282 63.6426ZM158.938 53.4648Q161.288 53.4648 162.688 54.9883Q164.095 56.5117 164.095 59.1777L164.095 67L160.017 67L160.017 59.7285Q160.017 58.3867 159.319 57.6426Q158.622 56.8984 157.45 56.8984Q156.272 56.8984 155.575 57.6426Q154.878 58.3867 154.878 59.7285L154.878 67L150.776 67L150.776 53.6055L154.878 53.6055L154.878 55.3867Q155.505 54.4961 156.559 53.9805Q157.614 53.4648 158.938 53.4648ZM175.414 53.4648Q177.764 53.4648 179.164 54.9883Q180.571 56.5117 180.571 59.1777L180.571 67L176.493 67L176.493 59.7285Q176.493 58.3867 175.795 57.6426Q175.098 56.8984 173.926 56.8984Q172.748 56.8984 172.051 57.6426Q171.354 58.3867 171.354 59.7285L171.354 67L167.252 67L167.252 53.6055L171.354 53.6055L171.354 55.3867Q171.981 54.4961 173.035 53.9805Q174.09 53.4648 175.414 53.4648ZM196.349 60.0859Q196.349 60.666 196.279 61.2871L186.992 61.2871Q187.086 62.5352 187.795 63.1973Q188.504 63.8535 189.535 63.8535Q191.07 63.8535 191.674 62.5586L196.039 62.5586Q195.705 63.8828 194.826 64.9375Q193.953 65.9922 192.629 66.5957Q191.31 67.1934 189.681 67.1934Q187.713 67.1934 186.177 66.3555Q184.642 65.5117 183.775 63.9531Q182.914 62.3945 182.914 60.3027Q182.914 58.2168 183.763 56.6582Q184.619 55.0938 186.154 54.2559Q187.689 53.418 189.681 53.418Q191.627 53.418 193.138 54.2324Q194.65 55.0469 195.5 56.5586Q196.349 58.0703 196.349 60.0859ZM192.154 59.0078Q192.154 57.9531 191.433 57.332Q190.713 56.7051 189.635 56.7051Q188.597 56.7051 187.888 57.3086Q187.185 57.9062 187.015 59.0078L192.154 59.0078ZM197.998 60.3027Q197.998 58.2168 198.847 56.6582Q199.703 55.0938 201.226 54.2559Q202.75 53.418 204.719 53.418Q207.238 53.418 208.926 54.7363Q210.619 56.0547 211.146 58.457L206.781 58.457Q206.23 56.9219 204.642 56.9219Q203.517 56.9219 202.844 57.8008Q202.17 58.6738 202.17 60.3027Q202.17 61.9375 202.844 62.8164Q203.517 63.6895 204.642 63.6895Q206.23 63.6895 206.781 62.1543L211.146 62.1543Q210.619 64.5039 208.914 65.8516Q207.215 67.1934 204.719 67.1934Q202.75 67.1934 201.226 66.3555Q199.703 65.5117 198.847 63.9531Q197.998 62.3945 197.998 60.3027ZM221.097 63.5195L221.097 67L219.005 67Q216.779 67 215.531 65.9102Q214.283 64.8145 214.283 62.3418L214.283 57.0156L212.648 57.0156L212.648 53.6055L214.283 53.6055L214.283 50.3418L218.384 50.3418L218.384 53.6055L221.074 53.6055L221.074 57.0156L218.384 57.0156L218.384 62.3945Q218.384 62.9922 218.671 63.2559Q218.958 63.5195 219.632 63.5195L221.097 63.5195Z" fill-rule="evenodd" fill="#FFFFFF"/>
</svg>
