<svg width="1444.000000" height="770.000000" viewBox="0 0 1444 770" fill="none" xmlns="http://www.w3.org/2000/svg" xmlns:xlink="http://www.w3.org/1999/xlink">
	<desc>
			Created with Pixso.
	</desc>
	<rect id="Base" width="1444.000000" height="770.000000" transform="matrix(1 0 0 -1 0 770)" fill="#FFFFFF"/>
	<mask id="mask16_1240" mask-type="alpha" maskUnits="userSpaceOnUse" x="0.000000" y="0.000000" width="1444.000000" height="770.000000">
		<rect id="Base" width="1444.000000" height="770.000000" transform="matrix(1 0 0 -1 0 770)" fill="#FFFFFF"/>
	</mask>
	<g mask="url(#mask16_1240)">
		<path id="Rectangle " d="M-223.563 -809.145L1150.89 -102.773C1175.45 -90.1504 1185.13 -60.0078 1172.5 -35.4473L807.262 675.236C794.641 699.793 764.502 709.477 739.945 696.855C620.501 635.492 285.989 463.627 53.2227 343.919C-179.003 224.489 -514.759 51.9854 -634.499 -9.53125C-659.063 -22.1553 -668.747 -52.2979 -656.123 -76.8613L-290.889 -787.529C-278.267 -812.09 -248.124 -821.768 -223.563 -809.145Z" fill-rule="nonzero" fill="url(#paint_linear_16_1241_0)"/>
	</g>
	<g mask="url(#mask16_1240)">
		<path id="Rectangle " d="M-223.563 -809.145L1150.89 -102.773C1175.45 -90.1504 1185.13 -60.0078 1172.5 -35.4473L807.262 675.236C794.641 699.793 764.502 709.477 739.945 696.855C620.501 635.492 285.989 463.627 53.2227 343.919C-179.003 224.489 -514.759 51.9854 -634.499 -9.53125C-659.063 -22.1553 -668.747 -52.2979 -656.123 -76.8613L-290.889 -787.529C-278.267 -812.09 -248.124 -821.768 -223.563 -809.145Z" fill-rule="nonzero" fill="url(#paint_linear_16_1242_0)"/>
	</g>
	<defs>
		<linearGradient id="paint_linear_16_1241_0" x1="885.500183" y1="254.999939" x2="29.500000" y2="-723.500122" gradientUnits="userSpaceOnUse">
			<stop stop-color="#F5F2FD"/>
			<stop offset="1.000000" stop-color="#F5F2FD" stop-opacity="0.000000"/>
			<stop offset="1.000000" stop-color="#F5F2FD" stop-opacity="0.098039"/>
		</linearGradient>
		<linearGradient id="paint_linear_16_1242_0" x1="885.500183" y1="254.999939" x2="29.500000" y2="-723.500122" gradientUnits="userSpaceOnUse">
			<stop stop-color="#F5F2FD"/>
			<stop offset="1.000000" stop-color="#F5F2FD" stop-opacity="0.000000"/>
			<stop offset="1.000000" stop-color="#F5F2FD" stop-opacity="0.098039"/>
		</linearGradient>
	</defs>
</svg>
