<svg width="1444.000000" height="150.000000" viewBox="0 0 1444 150" fill="none" xmlns="http://www.w3.org/2000/svg" xmlns:xlink="http://www.w3.org/1999/xlink">
	<desc>
			Created with Pixso.
	</desc>
	<defs/>
	<mask id="mask38_742" mask-type="alpha" maskUnits="userSpaceOnUse" x="0.000000" y="0.000000" width="1444.000000" height="150.000000">
		<rect id="Shape" width="1444.000000" height="150.000000" fill="#FFF9F7"/>
	</mask>
	<g mask="url(#mask38_742)">
		<rect id="Base" width="1444.000000" height="150.000000" fill="#F4F1FF"/>
	</g>
	<g mask="url(#mask38_742)">
		<g opacity="0.400000">
			<rect id="Shape" x="-49.716064" y="-101.000244" rx="37.969833" width="638.001892" height="75.939667" transform="rotate(45 -49.716064 -101.000244)" fill="#E6DEFF"/>
		</g>
	</g>
	<g mask="url(#mask38_742)">
		<rect id="Shape" x="-183.715881" y="-129.000000" rx="32.631744" width="638.001892" height="65.263489" transform="rotate(45 -183.715881 -129.000000)" fill="#E6DEFF"/>
	</g>
	<g mask="url(#mask38_742)">
		<g opacity="0.140000">
			<path id="矢量 1" d="M1466 -177.425C1448.89 -194.543 1421.14 -194.543 1404.03 -177.425L1176.98 49.7183C1159.87 66.8364 1159.87 94.5903 1176.98 111.708C1194.09 128.827 1221.84 128.827 1238.95 111.708L1466 -115.435C1483.11 -132.553 1483.11 -160.307 1466 -177.425ZM1624.96 -171.612C1606.15 -190.422 1575.67 -190.422 1556.87 -171.612L1335.94 49.4036C1317.14 68.2139 1317.14 98.7112 1335.94 117.521C1354.74 136.332 1385.23 136.332 1404.03 117.521L1624.96 -103.494C1643.76 -122.304 1643.76 -152.802 1624.96 -171.612Z" fill-rule="evenodd" fill="#7951F9"/>
		</g>
	</g>
</svg>
