<svg width="19.791748" height="19.791504" viewBox="0 0 19.7917 19.7915" fill="none" xmlns="http://www.w3.org/2000/svg" xmlns:xlink="http://www.w3.org/1999/xlink">
	<desc>
			Created with Pixso.
	</desc>
	<path id="形状" d="M9.89575 0C15.3611 0 19.7917 4.43066 19.7917 9.896C19.7917 15.3613 15.3611 19.7915 9.89575 19.7915C4.43042 19.7915 0 15.3613 0 9.896C0 4.43066 4.43042 0 9.89575 0ZM9.89648 2.08203C5.58179 2.08203 2.08398 5.57959 2.08398 9.89453C2.08398 14.209 5.58179 17.707 9.89648 17.707C14.2112 17.707 17.709 14.209 17.709 9.89453C17.709 5.57959 14.2112 2.08203 9.89648 2.08203ZM8.29248 6.55469C8.24243 6.52295 8.18408 6.50586 8.12476 6.50586C7.95215 6.50586 7.81226 6.64551 7.81226 6.81836L7.81226 12.9712C7.81226 13.0308 7.8291 13.0889 7.86108 13.1392C7.95386 13.2847 8.14697 13.3276 8.29248 13.2349L13.1272 10.1587C13.1658 10.1338 13.1985 10.1011 13.2229 10.0625C13.3157 9.91699 13.2727 9.72363 13.1272 9.63135L8.29248 6.55469Z" clip-rule="evenodd" fill-rule="evenodd" fill="url(#paint_linear_12_260_0)" fill-opacity="1.000000"/>
	<defs>
		<linearGradient id="paint_linear_12_260_0" x1="9.895830" y1="-9.895834" x2="-9.895830" y2="9.895826" gradientUnits="userSpaceOnUse">
			<stop stop-color="#2D1D61"/>
			<stop offset="1.000000" stop-color="#464D5A"/>
		</linearGradient>
	</defs>
</svg>
