<svg width="1440.000000" height="587.000000" viewBox="0 0 1440 587" fill="none" xmlns="http://www.w3.org/2000/svg" xmlns:xlink="http://www.w3.org/1999/xlink">
	<desc>
			Created with Pixso.
	</desc>
	<defs/>
	<mask id="mask46_591" mask-type="alpha" maskUnits="userSpaceOnUse" x="0.000000" y="0.000000" width="1440.000000" height="587.000000">
		<rect id="Base" width="1440.000000" height="587.000000" transform="matrix(1 0 0 -1 0 587)" fill="#FFFFFF"/>
	</mask>
	<g mask="url(#mask46_591)">
		<path id="Rectangle 15" d="M721.828 68.7968L1997.08 624.7C2022.4 635.735 2031.32 663.826 2017.01 687.444L1549.54 1459.09C1535.23 1482.71 1503.12 1492.91 1477.81 1481.88C1362.7 1431.73 1055.33 1297.79 840.649 1204.12C626.46 1110.67 317.956 976.238 202.561 925.96C177.243 914.924 168.314 886.832 182.625 863.21L650.086 91.5814C664.394 67.9631 696.514 57.7621 721.828 68.7968Z" fill-rule="nonzero" fill="#F9F7FF"/>
		<path id="Rectangle 15" d="M341.828 62.8589L1617.08 618.762C1642.4 629.797 1651.32 657.888 1637.01 681.507L1169.54 1453.15C1155.23 1476.77 1123.12 1486.98 1097.81 1475.94C982.704 1425.79 675.333 1291.86 460.649 1198.18C246.46 1104.73 -62.0439 970.3 -177.439 920.022C-202.757 908.986 -211.686 880.894 -197.375 857.272L270.086 85.6436C284.394 62.0253 316.514 51.8242 341.828 62.8589Z" fill-rule="nonzero" fill="#F9F7FF"/>
	</g>
</svg>
