<svg width="32.000000" height="32.000000" viewBox="0 0 32 32" fill="none" xmlns="http://www.w3.org/2000/svg" xmlns:xlink="http://www.w3.org/1999/xlink">
	<desc>
			Created with Pixso.
	</desc>
	<defs>
		<clipPath id="clip36_13">
			<rect id="user-circle" width="32.000000" height="32.000000" fill="white"/>
		</clipPath>
	</defs>
	<g clip-path="url(#clip36_13)">
		<path id="union-1" d="M16 5.33301C10.109 5.33301 5.33337 10.1089 5.33337 16C5.33337 18.7988 6.41077 21.3462 8.17603 23.25C8.24268 23.0298 8.3313 22.813 8.4469 22.6064C8.83893 21.9053 9.33344 21.2573 9.92017 20.6846C10.509 20.1094 11.1733 19.6265 11.8898 19.2451C10.7985 18.2007 10.1162 16.7407 10.1162 15.1108C10.1162 11.8906 12.7803 9.33301 16 9.33301C19.2197 9.33301 21.8838 11.8906 21.8838 15.1108C21.8838 16.7407 21.2015 18.2007 20.1102 19.2451C20.8268 19.6265 21.4911 20.1094 22.0799 20.6846C22.6666 21.2573 23.1611 21.9053 23.5531 22.6064C23.6688 22.813 23.7574 23.0298 23.824 23.25C25.5893 21.3462 26.6667 18.7988 26.6667 16C26.6667 10.1089 21.8911 5.33301 16 5.33301ZM21.2548 25.2847C21.3066 25.0186 21.3326 24.7686 21.3333 24.5469C21.3346 24.1812 21.2676 23.9829 21.2258 23.9082C20.9583 23.4302 20.6201 22.9858 20.2166 22.5923C19.1036 21.5049 17.5874 20.8887 16 20.8887C14.4127 20.8887 12.8965 21.5049 11.7834 22.5923C11.38 22.9858 11.0417 23.4302 10.7743 23.9082C10.7325 23.9829 10.6654 24.1812 10.6667 24.5469C10.6675 24.7686 10.6934 25.0186 10.7452 25.2847C12.2953 26.1641 14.0873 26.6665 16 26.6665C17.9127 26.6665 19.7047 26.1641 21.2548 25.2847ZM16 18.2222C17.8066 18.2222 19.2172 16.7998 19.2172 15.1108C19.2172 13.4224 17.8066 12 16 12C14.1935 12 12.7829 13.4224 12.7829 15.1108C12.7829 16.7998 14.1935 18.2222 16 18.2222ZM2.66669 16C2.66669 8.63623 8.63623 2.6665 16 2.6665C23.3638 2.6665 29.3334 8.63623 29.3334 16C29.3334 20.7427 26.8558 24.9062 23.1307 27.2681C21.0676 28.5762 18.6202 29.333 16 29.333C13.3798 29.333 10.9324 28.5762 8.86938 27.2681C5.14423 24.9062 2.66669 20.7427 2.66669 16Z" fill-rule="evenodd" fill="#CCCCCC"/>
	</g>
</svg>
